<?xml version="1.0" encoding="UTF-8" standalone="no"?>
<!-- Created with Inkscape (http://www.inkscape.org/) -->

<svg
   version="1.1"
   id="svg1"
   width="2000"
   height="2000"
   viewBox="0 0 2000 2000"
   xmlns="http://www.w3.org/2000/svg"
   xmlns:svg="http://www.w3.org/2000/svg">
  <defs
     id="defs1" />
  <g
     id="g1">
    <path
       style="fill:#000000"
       d="m 1267.8977,1800.3575 c -95.1672,-9.149 -175.5089,-47.2263 -240.2442,-113.8618 -16.6905,-17.1804 -28.39423,-31.4079 -40.24523,-48.9239 l -8.3421,-12.3297 -5.2612,7.8297 c -30.1157,44.8187 -71.8966,84.9169 -116.90472,112.1967 -94.4967,57.2752 -207.54315,70.6644 -312.00261,36.9535 -76.11972,-24.5652 -143.02749,-73.3805 -190.27159,-138.8205 -25.74916,-35.6664 -47.02168,-80.7815 -58.1523,-123.3304 -20.55718,-78.5837 -15.64439,-160.2579 14.1457,-235.1696 12.9661,-32.6052 30.39485,-63.2206 52.0892,-91.5 6.67009,-8.6947 7.76564,-10.6172 6.372,-11.1815 -0.92566,-0.3747 -8.65801,-2.8998 -17.18301,-5.6112 -37.90357,-12.0553 -64.71345,-24.9008 -97.5,-46.7154 -65.57541,-43.6308 -116.9585,-109.3852 -144.14202,-184.45687 -35.611913,-98.3481 -28.435413,-208.22847 19.6474,-300.82396 18.62628,-35.86957 40.112,-65.39578 67.47005,-92.71899 56.47935,-56.40745 125.70444,-92.24175 204.57019,-105.89556 30.10724,-5.21239 76.39957,-6.67257 103.69557,-3.27084 31.60978,3.93933 73.15358,14.22577 97.25881,24.08175 1.30959,0.53545 1.50678,-2.65672 1.5534,-25.14703 0.0608,-29.34645 1.57057,-44.97072 6.93404,-71.76033 12.71613,-63.51481 40.97692,-122.04808 82.16266,-170.17391 56.44054,-65.95117 131.00113,-109.452875 216.34993,-126.227395 16.9063,-3.32278 32.0326,-5.03441 55.5,-6.28015 19.1571,-1.01694 24.649,-0.9439 42.50003,0.56525 62.5018,5.28398 114.6064,21.74742 166.3336,52.556225 43.5271,25.92489 82.6818,62.05071 113.0956,104.34678 26.9466,37.47444 47.9637,83.34707 59.0688,128.92565 7.6721,31.48886 10.6333,56.70226 10.6423,90.61637 0.01,22.37148 0.1414,24.27317 1.6831,23.63708 15.1895,-6.26706 46.6921,-15.34419 65.4171,-18.84925 30.6541,-5.73802 47.0696,-7.02361 80.6167,-6.31354 33.4932,0.70893 52.9986,3.29522 83.7835,11.10913 124.5806,31.62138 223.8222,124.06995 264.7069,246.58776 19.7804,59.27537 24.3483,124.33816 13.0587,185.99996 -11.2197,61.2796 -37.5783,118.95357 -77.0092,168.49997 -11.2738,14.166 -43.7451,46.6354 -57.8971,57.8937 -39.8469,31.6994 -88.5676,56.5446 -135.2614,68.9766 l -8.2615,2.1996 8.1518,10.4651 c 94.6461,121.5041 104.6485,291.1806 24.9849,423.8344 -36.1755,60.2385 -90.9356,111.5005 -149.6138,140.0562 -51.2789,24.955 -84.0901,35.0594 -132,40.6502 -15.6515,1.8264 -58.2958,2.6496 -71.5,1.3802 z m -254,-1485.94262 c 17.4307,-4.39181 38.9319,-17.46554 50.5283,-30.72358 11.1477,-12.74498 19.5173,-29.94493 23.0463,-47.36097 2.3264,-11.48125 1.545,-34.32534 -1.5368,-44.92876 -11.6409,-40.05199 -46.0802,-69.13689 -86.23043,-72.82378 -50.1698,-4.60698 -93.4661,25.58369 -107.0528,74.64835 -3.182,11.49074 -3.1293,37.16722 0.1009,49.17543 10.2462,38.08991 40.5607,66.16514 79.4503,73.58146 10.2584,1.95628 30.76753,1.18491 41.69423,-1.56815 z"
       id="path1" />
  </g>
</svg>
